#N struct 1004-cell float x float y float cellsize float color;
#N struct 1006-point float x0 float y0 float xs float ys float fg float in float gridx float gridy;
#N struct 1059-slot float x float y float slotsize float color float width float bordercolor;
#N canvas 448 23 541 693 10;
#N canvas 240 37 974 682 GUI 0;
#X text 40 146 [biplot];
#X text 196 83 [pic] =>;
#X text 557 34 [function] =>;
#X text 799 1158 [display] =>;
#X text 70 476 [slider2d];
#X text 616 1126 <= [gain~];
#X text 656 1187 [gain2~] =>;
#X text 49 906 [graph~];
#X text 54 662 [mix2~];
#X text 164 661 [mix4~];
#X text 446 484 [keyboard];
#X text 829 1094 [note];
#X text 261 907 [spectrograph~];
#X text 750 859 [drumseq];
#X text 777 1056 [button] =>;
#X text 585 622 [range.hsl] =>;
#X text 410 669 [meter~];
#X text 491 669 [meter2~];
#X text 578 669 [meter4~];
#X text 691 669 [meter8~];
#X text 617 972 [setdsp~];
#X text 99 36 [mtx.ctl];
#X text 265 475 [circle];
#X text 757 938 [messbox];
#X text 273 31 [pad] =>;
#X obj 509 79 colors;
#X obj 508 113 openfile;
#X obj 102 58 mtx.ctl;
#X obj 337 15 pad 127 127 255 255 255;
#X obj 258 79 pic 0 empty empty empty 0 0;
#X obj 648 27 function 200 100 empty empty 0 1 220 220 220 50 50 50 0 0 0 0 0 1000 0;
#X obj 74 500 slider2d 127 127 0 127 0 127 1 255 255 255 0 0 0 0 0 0 0 0 empty empty;
#X obj 40 169 biplot;
#X obj 265 498 circle 127 -1 1 -1 1 1 255 255 255 255 255 255 0 0 0 1 0 0 63.5 63.5 empty empty 1;
#X obj 447 509 keyboard 17 80 4 3 0 0 empty empty;
#X obj 682 622 range.hsl;
#X obj 61 687 mix2~;
#X obj 165 687 mix4~;
#X obj 419 687 meter~;
#X obj 492 687 meter2~;
#X obj 575 688 meter4~;
#X obj 692 688 meter8~;
#X obj 754 880 drum.seq;
#X obj 47 930 graph~;
#X obj 259 930 spectrograph~;
#X obj 623 991 setdsp~;
#X obj 762 959 messbox 150 50 235 235 235 0 0 0 0 10;
#X obj 854 1054 button 20 20 255 255 255 128 128 159 0;
#X obj 832 1109 note 51 20 helvetica empty 0 0 0 0 0 255 255 255 0 0 note;
#X obj 881 1156 display;
#X obj 732 1112 gain2~;
#A saved;
#X obj 587 1113 gain~;
#A saved;
#X obj 402 1093 out8~;
#X obj 292 1093 out4~;
#X obj 175 1091 out~;
#X obj 723 1471 multi.vsl;
#X obj 28 1201 zbiplot;
#X obj 498 1275 bicoeff 450 150 peaking;
#X text 38 1174 [zbiplot];
#X text 770 1444 [multi.vsl];
#X text 540 1244 [bicoeff];
#X text 798 1201 [numbox~] ->;
#X obj 884 1202 numbox~ 6 10 100 #C0C0C4 #440008 10 0 0 0;
#X obj 615 866 knob 50 0 127 0 0 empty empty #dfdfdf #7c7c7c black 0 0 0 0 1 320 0 0 0;
#X text 561 874 [knob];
#X obj 65 1091 out.mc~;
#X text 572 1675 [scope3d~];
#X obj 498 1490 scope~ 200 100 256 3 128 -1 1 0 0 0 0 30 30 30 190 190 190 160 160 160 0 empty;
#X text 537 1462 [scope~];
#X obj 669 1633 scope3d~;
#X restore 150 222 pd GUI;
#X obj 385 121 switch~;
#X obj 18 34 cnv 30 279 30 empty empty ALL\ OBJECTS\ IN\ THE\ ELSE\ LIBRARY: 12 15 0 14 #e0e0e0 #404040 0;
#N canvas 149 184 672 303 (subpatch) 0;
#X obj 333 117 else;
#X msg 333 90 version;
#X obj 333 62 loadbang;
#X obj 333 147 format symbol %d.%d-%d\ %s-%d;
#X obj 333 203 s \$0-label;
#X msg 333 175 label version\\\ \$1;
#X connect 0 0 3 0;
#X connect 1 0 0 0;
#X connect 2 0 1 0;
#X connect 3 0 5 0;
#X connect 5 0 4 0;
#X coords 0 -1 1 1 174 30 2 100 100;
#X restore 66 82 pd;
#X obj 67 83 cnv 15 172 28 empty \$0-label version\ 1.0-0\ rc-12 8 14 0 14 #e0e0e0 #404040 0;
#N canvas 568 23 241 168 FFT 0;
#X obj 55 52 hann~;
#X obj 55 78 bin.shift~;
#X restore 255 222 pd FFT;
#N canvas 660 186 345 460 Patch/subpatch_management 0;
#X obj 70 41 meter;
#X obj 71 16 args;
#X obj 71 93 blocksize~;
#X obj 71 119 fontsize;
#X obj 71 167 canvas.active;
#X obj 71 191 canvas.bounds;
#X obj 71 215 canvas.vis;
#X obj 71 239 canvas.edit;
#X obj 71 264 canvas.setname;
#X obj 71 316 canvas.zoom;
#X obj 71 339 click;
#X obj 71 363 properties;
#X obj 71 388 dollsym;
#X obj 71 435 receiver;
#X obj 71 459 loadbanger;
#X obj 181 459 lb;
#X obj 71 143 retrieve;
#X obj 71 69 presets;
#A saved -empty- \; -empty- \; -empty- \; -empty- \; -empty- \; -empty- \; -empty- \; -empty- \; -empty- \; -empty- \; -empty- \; -empty- \; -empty- \; -empty- \; -empty- \; -empty- \; -empty- \; -empty- \; -empty- \; -empty- \; -empty- \; -empty- \; -empty- \; -empty- \; -empty- \; -empty- \; -empty- \; -empty- \; -empty- \; -empty- \; -empty- \; -empty- \; -empty- \; -empty- \; -empty- \; -empty- \; -empty- \; -empty- \; -empty- \; -empty- \; -empty- \; -empty- \; -empty- \; -empty- \; -empty- \; -empty- \; -empty- \; -empty- \; -empty- \; -empty- \; -empty- \; -empty- \; -empty- \; -empty- \; -empty- \; -empty- \; -empty- \; -empty- \; -empty- \; -empty- \; -empty- \; -empty- \; -empty- \; -empty- \;;
#X obj 71 289 canvas.name;
#X obj 71 412 sender;
#X obj 72 511 dispatch;
#X obj 73 534 var;
#X obj 74 561 nop~;
#X obj 72 485 send2~;
#X obj 74 587 abs.pd~;
#X obj 74 612 sendmidi;
#X restore 46 255 pd Patch/subpatch_management;
#N canvas 655 96 310 486 MIDI 0;
#X obj 72 125 sysrt.in;
#X obj 72 151 sysrt.out;
#X obj 72 177 ctl.in;
#X obj 72 203 ctl.out;
#X obj 72 229 touch.in;
#X obj 72 255 touch.out;
#X obj 72 341 pgm.in;
#X obj 73 367 pgm.out;
#X obj 72 393 bend.in;
#X obj 72 419 bend.out;
#X obj 72 445 note.in;
#X obj 72 471 note.out;
#X obj 72 545 panic;
#X obj 72 571 mono;
#X obj 72 621 voices;
#X obj 72 672 suspedal;
#X obj 72 99 midi.learn;
#A saved;
#X obj 72 495 midi.clock;
#X obj 72 520 noteinfo;
#X obj 73 21 midi;
#X obj 73 49 midi.in;
#X obj 73 75 midi.out;
#X obj 73 283 ptouch.in;
#X obj 73 309 ptouch.out;
#X obj 72 598 mono~;
#X obj 72 646 voices~;
#X restore 161 284 pd MIDI;
#N canvas 591 107 264 441 Math_functions 0;
#X obj 48 24 add;
#X obj 48 50 add~;
#X obj 48 76 median;
#X obj 48 103 avg;
#X obj 48 127 mov.avg;
#X obj 48 201 lcm;
#X obj 48 227 gcd;
#X obj 48 253 count;
#X obj 48 279 ceil;
#X obj 48 304 ceil~;
#X obj 48 328 factor;
#X obj 48 352 floor;
#X obj 48 378 floor~;
#X obj 48 451 rint;
#X obj 48 477 rint~;
#X obj 48 503 quantizer;
#X obj 48 529 quantizer~;
#X obj 48 558 fold;
#X obj 48 584 fold~;
#X obj 48 610 lastvalue;
#X obj 48 636 mag;
#X obj 48 662 mag~;
#X obj 48 688 sin~;
#X obj 48 714 wrap2;
#X obj 48 740 wrap2~;
#X obj 48 765 op~;
#X obj 48 425 trunc~;
#X obj 48 789 op;
#X obj 48 401 trunc;
#X obj 48 151 frac.add;
#X obj 48 175 frac.mul;
#X restore 270 284 pd Math_functions;
#N canvas 399 116 193 126 File_Management 0;
#X obj 60 55 dir;
#X restore 37 284 pd File_Management;
#N canvas 479 51 344 644 DSP(assorted) 0;
#X obj 53 36 downsample~;
#X obj 53 61 conv~;
#X obj 53 86 chorus~;
#X obj 53 113 shaper~;
#X obj 53 141 crusher~;
#X obj 53 199 drive~;
#X obj 53 229 flanger~;
#X obj 53 260 freq.shift~;
#X obj 53 288 pitch.shift~;
#X obj 53 317 ping.pong~;
#X obj 53 344 phaser~;
#X obj 53 373 rm~;
#X obj 53 403 tremolo~;
#X obj 53 431 vibrato~;
#X obj 53 458 vocoder~ 16;
#X obj 53 486 morph~;
#X obj 53 512 freeze~;
#X obj 53 539 pvoc.freeze~;
#X obj 53 169 power~;
#X restore 57 377 pd DSP(assorted);
#N canvas 701 163 238 235 DSP(dynamics) 0;
#X obj 64 48 compress~;
#X obj 64 76 duck~;
#X obj 65 125 noisegate~;
#X obj 65 151 norm~;
#X obj 65 100 expand~;
#X restore 270 376 pd DSP(dynamics);
#N canvas 983 73 238 235 DSP(reverberation) 0;
#X obj 45 15 allpass.rev~;
#X obj 45 41 comb.rev~;
#X obj 45 69 mono.rev~;
#X obj 45 93 stereo.rev~;
#X obj 45 121 plate.rev~;
#X obj 45 145 giga.rev~;
#X obj 45 172 free.rev~;
#X obj 45 198 fdn.rev~;
#X restore 383 377 pd DSP(reverberation);
#N canvas 530 48 273 530 DSP(filters) 0;
#X obj 42 -9 allpass.2nd~;
#X obj 42 17 allpass.filt~;
#X obj 42 65 comb.filt~;
#X obj 42 114 lop.bw~;
#X obj 42 139 hip.bw~;
#X obj 42 166 biquads~;
#X obj 42 192 bandpass~;
#X obj 42 220 bandstop~;
#X obj 42 245 crossover~;
#X obj 42 271 bpbank~;
#X obj 42 297 bicoeff2;
#X obj 42 323 brickwall~;
#X obj 42 348 eq~;
#X obj 42 374 highpass~;
#X obj 42 400 highshelf~;
#X obj 42 428 lowpass~;
#X obj 42 455 lowshelf~;
#X obj 42 481 mov.avg~;
#X obj 42 507 resonbank~;
#X obj 42 533 resonbank2~;
#X obj 42 560 resonant~;
#X obj 42 587 resonant2~;
#X obj 42 614 svfilter~;
#X obj 42 88 lop2~;
#X obj 42 40 bitnormal~;
#X obj 41 641 vcf2~;
#X restore 46 406 pd DSP(filters);
#N canvas 709 140 229 403 Buffer/Sampling/Playing/Granulation 0;
#X obj 58 54 sample~;
#X obj 58 78 player~;
#X obj 58 103 tabplayer~;
#X obj 58 127 tabwriter~;
#X obj 58 152 gran.player~;
#X obj 58 177 pvoc.player~;
#X obj 58 203 pvoc.live~;
#X obj 58 227 grain.live~;
#X obj 58 252 grain.sampler~;
#X obj 58 278 rec.file~;
#X obj 58 303 batch.rec~;
#X obj 58 327 batch.write~;
#X obj 58 352 play.file~;
#X obj 59 30 tabreader~;
#X restore 154 407 pd Buffer/Sampling/Playing/Granulation;
#N canvas 1011 188 230 109 Granular_synth 0;
#X obj 62 47 grain.synth~;
#X restore 86 438 pd Granular_synth;
#N canvas 452 259 220 145 Physical_Modelling 0;
#X obj 56 51 pluck~;
#X restore 218 438 pd Physical_Modelling;
#N canvas 601 42 327 616 Oscillators 0;
#X obj 70 24 cosine~;
#X obj 70 52 impulse~;
#X obj 70 79 impulse2~;
#X obj 172 79 imp2~;
#X obj 172 50 imp~;
#X obj 70 106 parabolic~;
#X obj 70 134 pulse~;
#X obj 70 162 saw~;
#X obj 70 191 saw2~;
#X obj 70 249 oscbank~;
#X obj 70 277 oscbank2~;
#X obj 70 305 sine~;
#X obj 70 333 square~;
#X obj 71 362 tri~;
#X obj 71 390 vsaw~;
#X obj 71 493 wavetable~;
#X obj 185 493 wt~;
#X obj 71 614 bl.imp~;
#X obj 71 642 bl.imp2~;
#X obj 71 670 bl.saw~;
#X obj 71 698 bl.saw2~;
#X obj 71 731 bl.square~;
#X obj 71 760 bl.tri~;
#X obj 71 787 bl.vsaw~;
#X obj 71 815 bl.wavetable~;
#X obj 71 414 gaussian~;
#X obj 72 585 blip~;
#X obj 72 556 bl.osc~;
#X obj 71 220 oscnoise~;
#X obj 72 842 oscnoise~;
#X obj 71 440 pm~;
#X obj 71 465 fm~;
#X obj 71 525 wt2d~;
#X obj 72 868 damp.osc~;
#X restore 374 438 pd Oscillators;
#N canvas 790 167 331 453 Control(Fader/Panning/Routing) 0;
#X obj 93 134 balance~;
#X obj 93 202 pan2~;
#X obj 93 231 pan4~;
#X obj 93 263 spread~;
#X obj 93 313 rotate~;
#X obj 93 370 xfade~;
#X obj 93 430 xgate~;
#X obj 93 489 xgate2~;
#X obj 92 549 xselect~;
#X obj 93 609 xselect2~;
#X obj 93 669 mtx~;
#X obj 93 45 autofade~;
#X obj 93 89 autofade2~;
#X obj 92 22 fader~;
#X obj 92 579 xselect.mc~;
#X obj 93 288 spread.mc~;
#X obj 93 341 rotate.mc~;
#X obj 93 398 xfade.mc~;
#X obj 93 458 xgate.mc~;
#X obj 93 156 pan~;
#X obj 93 518 xgate2.mc~;
#X obj 93 639 xselect2.mc~;
#X obj 93 699 mtx.mc~;
#X obj 93 67 autofade.mc~;
#X obj 93 110 autofade2.mc~;
#X obj 93 179 pan.mc~;
#X restore 26 501 pd Control(Fader/Panning/Routing);
#N canvas 457 71 332 357 Control(Sequencers) 0;
#X obj 91 39 euclid;
#X obj 91 62 score;
#X obj 91 84 score2;
#X obj 91 108 pattern;
#X obj 91 134 sequencer;
#X obj 91 159 sequencer~;
#X obj 91 184 impseq~;
#X obj 92 237 rec;
#X obj 92 261 rec2 \$0-name;
#X obj 91 208 phaseseq~;
#X obj 92 292 phaseseq~;
#X obj 92 320 list.seq;
#X restore 236 500 pd Control(Sequencers);
#N canvas 653 78 261 244 Control(Envelopes) 0;
#X obj 78 40 adsr~;
#X obj 78 62 asr~;
#X obj 78 86 decay~;
#X obj 78 109 decay2~;
#X obj 78 133 envelope~;
#X obj 78 157 envgen~;
#X restore 383 500 pd Control(Envelopes);
#N canvas 522 164 270 363 Control(Ramp/Line_Generators/Smoothening 0;
#X obj 86 28 function~;
#X obj 86 76 glide~;
#X obj 87 100 glide2~;
#X obj 86 53 ramp~;
#X obj 87 269 lag~;
#X obj 87 295 lag2~;
#X obj 87 321 susloop~;
#X obj 87 173 slew;
#X obj 87 196 slew2;
#X obj 87 223 slew~;
#X obj 87 246 slew2~;
#X obj 87 125 glide;
#X obj 87 149 glide2;
#X restore 40 535 pd Control(Ramp/Line_Generators/Smoothening;
#N canvas 929 74 253 216 Control(Control_Rate_LFO) 0;
#X obj 86 87 lfo;
#X obj 86 109 impulse;
#X obj 86 132 pulse;
#X obj 86 63 pimp;
#X obj 86 39 phasor;
#X restore 112 569 pd Control(Control_Rate_LFO);
#N canvas 484 145 283 424 Control(Triggers) 0;
#X obj 61 21 above;
#X obj 61 46 above~;
#X obj 61 70 bangdiv;
#X obj 61 98 chance;
#X obj 61 125 chance~;
#X obj 61 152 dust~;
#X obj 61 179 dust2~;
#X obj 61 207 gatehold~;
#X obj 61 232 gate2imp~;
#X obj 61 258 pimp~;
#X obj 61 312 pulsecount~;
#X obj 61 336 pulsediv~;
#X obj 61 361 sh~;
#X obj 61 386 schmitt;
#X obj 61 413 schmitt~;
#X obj 61 439 status;
#X obj 61 469 status~;
#X obj 61 499 trig.delay~;
#X obj 61 529 trig.delay2~;
#X obj 61 559 toggleff~;
#X obj 61 589 timed.gate~;
#X obj 61 618 timed.gate;
#X obj 61 649 match~;
#X obj 61 679 trig2bang~;
#X obj 61 705 trig2bang;
#X obj 61 732 trighold~;
#X obj 61 284 pimpmul~;
#X restore 295 570 pd Control(Triggers);
#N canvas 744 219 235 261 Control(Triggers/Clocks) 0;
#X obj 67 86 tempo;
#X obj 67 109 tempo~;
#X obj 67 133 metronome;
#X obj 67 62 clock;
#X obj 67 39 speed;
#X obj 67 183 polymetro;
#X obj 67 207 polymetro~;
#X obj 67 159 metronome~;
#X restore 134 603 pd Control(Triggers/Clocks);
#N canvas 833 176 230 393 Analysis 0;
#X obj 70 22 changed~;
#X obj 70 47 changed2~;
#X obj 70 73 detect~;
#X obj 71 98 lastvalue;
#X obj 71 123 median~;
#X obj 71 148 range;
#X obj 71 199 range~;
#X obj 71 224 peak~;
#X obj 71 249 rms~;
#X obj 71 275 mov.rms~;
#X obj 71 301 vu~;
#X obj 71 327 zerocross~;
#X obj 71 173 tap;
#X obj 71 352 beat~;
#X restore 312 603 pd Analysis;
#X text 7 192 =====================================================================================, f 85;
#X text 7 11 =====================================================================================, f 85;
#N canvas 879 143 350 528 Control(Random/Stochastic) 0;
#X obj 126 291 drunkard;
#X obj 126 317 drunkard~;
#X obj 126 343 randpulse;
#X obj 126 369 randpulse2;
#X obj 126 395 stepnoise;
#X obj 126 421 rampnoise;
#X obj 126 447 lfnoise;
#X obj 126 473 markov;
#X obj 127 29 rand.f;
#X obj 127 55 rand.f~;
#X obj 127 81 rand.i;
#X obj 127 107 rand.i~;
#X obj 127 136 rand.list;
#X obj 126 263 brown;
#X obj 126 238 rand.hist;
#X obj 128 212 histogram;
#A saved;
#X obj 127 163 rand.u;
#X obj 127 187 rand.dist;
#X restore 318 535 pd Control(Random/Stochastic);
#N canvas 683 140 279 464 Math(conversion) 0;
#X obj 60 17 hex2dec;
#X obj 60 43 dec2hex;
#X obj 60 69 bpm;
#X obj 60 95 car2pol;
#X obj 60 121 car2pol~;
#X obj 60 147 pol2car;
#X obj 60 173 pol2car~;
#X obj 60 240 cents2ratio;
#X obj 60 265 cents2ratio~;
#X obj 60 291 ratio2cents;
#X obj 60 317 ratio2cents~;
#X obj 60 343 ms2samps;
#X obj 60 369 ms2samps~;
#X obj 60 395 samps2ms;
#X obj 60 421 samps2ms~;
#X obj 60 494 db2lin;
#X obj 60 520 db2lin~;
#X obj 60 546 float2bits;
#X obj 60 572 hz2rad;
#X obj 60 598 rad2hz;
#X obj 60 626 lin2db;
#X obj 60 652 lin2db~;
#X obj 60 678 rescale;
#X obj 60 704 rescale~;
#X obj 60 444 deg2rad;
#X obj 60 467 rad2deg;
#X obj 60 195 pz2coeff;
#X obj 60 216 coeff2pz;
#X restore 387 284 pd Math(conversion);
#N canvas 1012 129 205 207 Math(constant) 0;
#X obj 72 50 sr~;
#X obj 72 76 nyquist~;
#X obj 72 102 pi;
#X obj 72 128 e;
#X restore 52 315 pd Math(constant);
#N canvas 366 184 200 117 Math(logic) 0;
#X obj 63 45 loop;
#X restore 169 315 pd Math(logic);
#N canvas 522 26 319 675 Message_management 0;
#X obj 70 71 format;
#X obj 70 94 unite;
#X obj 70 117 separate;
#X obj 70 167 any2symbol;
#X obj 70 191 symbol2any;
#X obj 70 215 changed;
#X obj 70 241 hot;
#X obj 70 265 limit;
#X obj 70 289 initmess;
#X obj 70 335 message;
#X obj 70 359 pack2;
#X obj 70 384 pick;
#X obj 70 410 spread;
#X obj 70 433 router;
#X obj 70 459 routeall;
#X obj 70 484 routetype;
#X obj 70 508 selector;
#X obj 70 532 stack;
#X obj 70 612 sig2float~;
#X obj 70 638 float2sig~;
#X obj 191 612 s2f~;
#X obj 191 638 f2s~;
#X obj 70 584 pipe2;
#X obj 70 312 default;
#X obj 70 45 nmess;
#X obj 70 557 store;
#A saved;
#X obj 70 21 swap2;
#X obj 71 141 route2;
#X restore 229 255 pd Message_management;
#N canvas 522 132 182 91 Assorted 0;
#X obj 73 30 else;
#X restore 71 222 pd Assorted;
#N canvas 835 177 225 194 Table 0;
#X obj 70 43 tabgen;
#X obj 70 70 tabreader;
#X obj 70 100 tabreader~;
#X obj 71 129 buffer;
#X restore 305 222 pd Table;
#N canvas 403 148 235 240 OSC 0;
#X obj 64 48 osc.route;
#X obj 64 80 osc.format;
#X obj 64 112 osc.parse;
#X obj 64 144 osc.send;
#X obj 64 176 osc.receive;
#X restore 219 284 pd OSC;
#N canvas 410 296 313 226 Control(Mouse/keyboard_interaction) 0;
#X obj 84 52 mouse;
#X obj 85 80 canvas.mouse;
#X obj 85 112 keycode;
#X obj 83 145 keymap;
#X obj 85 180 keypress;
#X restore 241 469 pd Control(Mouse/keyboard_interaction);
#N canvas 848 204 238 265 Synthesizers 0;
#X obj 78 116 plaits~;
#X obj 79 144 sfz~;
#X obj 78 173 sfont~;
#X obj 79 206 synth~;
#X obj 78 23 pm2~;
#X obj 78 49 pm4~;
#X obj 78 79 pm6~, f 10;
#X restore 402 406 pd Synthesizers;
#N canvas 162 143 414 227 DSP(delays) 0;
#X obj 101 49 del~ in \$0x;
#X obj 212 49 del~ out \$0x;
#X obj 101 75 fbdelay~;
#X obj 101 101 ffdelay~;
#X obj 101 127 revdelay~;
#X obj 102 153 filterdelay~;
#X restore 171 376 pd DSP(delays);
#N canvas 89 79 314 198 time 0;
#X obj 120 58 chrono;
#X obj 114 88 datetime;
#X restore 200 222 pd time;
#N canvas 568 23 219 496 Tuning/notes 0;
#X obj 50 68 autotune;
#X obj 50 91 autotune2;
#X obj 50 161 retune;
#X obj 50 186 eqdiv;
#X obj 50 294 frac2dec;
#X obj 50 363 midi2freq;
#X obj 50 44 scales;
#X obj 50 250 cents2frac;
#X obj 50 272 frac2cents;
#X obj 50 207 scale2cents;
#X obj 50 227 cents2scale;
#X obj 50 340 freq2midi;
#X obj 50 318 dec2frac;
#X obj 50 114 makenote2;
#X obj 50 137 scala;
#X obj 50 409 midi2note;
#X obj 50 386 note2midi;
#X obj 50 433 notedur2ratio;
#X restore 367 222 pd Tuning/notes;
#N canvas 445 74 302 469 List_management 0;
#X obj 73 20 break;
#X obj 73 45 order;
#X obj 73 69 group;
#X obj 73 93 combine;
#X obj 72 116 scramble;
#X obj 73 139 buffer;
#X obj 73 163 interpolate;
#X obj 73 237 morph;
#X obj 73 260 sort;
#X obj 73 282 iterate;
#X obj 73 307 insert;
#X obj 72 332 reverse;
#X obj 72 357 rotate;
#X obj 72 381 sum;
#X obj 72 405 slice;
#X obj 72 475 stream;
#X obj 73 499 merge;
#X obj 73 522 unmerge;
#X obj 72 428 morph;
#X obj 72 452 interpolate;
#X obj 73 546 amean;
#X obj 74 567 gmean;
#X obj 73 188 delete;
#X obj 73 213 replace;
#X obj 72 595 remove;
#X obj 72 621 equal;
#X obj 73 645 list.inc;
#X restore 367 255 pd List_management;
#N canvas 479 51 243 385 Audio 0;
#X obj 86 48 nchs~;
#X obj 86 73 pick~;
#X obj 86 98 get~;
#X obj 86 125 sum~;
#X obj 86 153 merge~;
#X obj 86 211 sigs~;
#X obj 86 237 select~;
#X obj 86 180 unmerge~;
#X obj 86 267 slice~;
#X obj 86 298 repeat~;
#X restore 285 315 pd Audio Multichannel Tools;
#N canvas 696 90 297 439 Noise/chaotic/stochastic 0;
#X obj 85 85 brown~;
#X obj 85 115 crackle~;
#X obj 85 145 perlin~;
#X obj 85 178 cusp~;
#X obj 85 207 fbsine~;
#X obj 85 240 fbsine2~;
#X obj 85 269 gbman~;
#X obj 85 297 gray~;
#X obj 85 326 henon~;
#X obj 85 355 ikeda~;
#X obj 85 382 latoocarfian~;
#X obj 84 410 lorenz~;
#X obj 83 440 lfnoise~;
#X obj 83 468 lincong~;
#X obj 83 496 logistic~;
#X obj 82 524 quad~;
#X obj 82 552 rampnoise~;
#X obj 82 580 randpulse~;
#X obj 82 611 randpulse2~;
#X obj 82 638 standard~;
#X obj 82 668 stepnoise~;
#X obj 83 727 xmod~;
#X obj 83 754 xmod2~;
#X obj 85 59 white~;
#X obj 83 697 pink~;
#X obj 84 32 gendyn~;
#X restore 45 469 pd Noise/chaotic/stochastic;
#X obj 459 56 setdsp~;
#X obj 385 56 bng 33 250 50 0 empty empty empty 0 -8 0 10 #dfdfdf #000000 #000000;
#X obj 282 131 meter;
#X obj 282 152 nbx 3 15 -1e+37 1e+37 0 0 \$0-x \$0-x empty 0 -8 0 13 #dfdfdf #000000 #000000 0 256;
#X obj 339 57 tgl 33 0 empty empty empty 0 -8 0 10 #dfdfdf #000000 #000000 0 1;
#N canvas 149 184 672 303 (subpatch) 0;
#X coords 0 -1 1 1 280 31 2 100 100;
#X restore 17 34 pd;
#X text 334 36 TEST DSP STUFF;
#N canvas 622 222 370 199 analog 0;
#X obj 148 91 circuit~;
#X restore 176 346 pd analog circuitry emulation;
#X obj 133 151 All_about_else;
#X text 143 131 see also:;
#X text 7 628 =====================================================================================, f 85;
#X obj 328 655 about.MERDA;
#X text 89 655 ELSE includes M.E.R.D.A \, check it out:;
#X connect 45 0 1 0;
#X connect 46 0 47 0;
#X connect 48 0 1 0;
