#N canvas 338 23 628 326 10;
#X declare -path else;
#X obj 97 49 inlet~ fwd;
#N canvas 395 165 582 459 route/init 1;
#X obj 287 374 outlet;
#X obj 144 27 inlet;
#X obj 45 224 order;
#X obj 126 225 order;
#X obj 205 226 order;
#X obj 285 226 order;
#X obj 45 288 insert 1 freq;
#X obj 126 262 insert 1 q;
#X obj 205 288 insert 1 amp;
#X obj 285 258 insert 1 ramp;
#N canvas 185 67 560 475 init 0;
#X obj 197 133 trigger anything bang;
#X obj 140 104 route bang;
#X obj 197 159 break -;
#X obj 197 317 insert freq;
#X obj 233 291 insert q;
#X obj 270 262 insert amp;
#X obj 307 236 insert ramp;
#X obj 140 81 args;
#X obj 74 368 stack;
#X msg 74 340 dump;
#X obj 74 416 outlet;
#X obj 330 298 v n_\$0;
#X obj 330 213 list length;
#X obj 123 137 v n_\$0;
#X obj 123 196 s \$0-n;
#X obj 123 167 max 1;
#X obj 98 253 v mc_\$0;
#X obj 98 282 s \$0-mc;
#X obj 197 184 route -freq -q -amp -ramp -rampall -mc;
#X msg 113 224 1;
#X obj 41 51 loadbanger 4;
#X msg 409 321 rampall \$1;
#X connect 0 0 2 0;
#X connect 1 1 0 0;
#X connect 2 0 18 0;
#X connect 3 0 8 1;
#X connect 4 0 8 1;
#X connect 5 0 8 1;
#X connect 6 0 8 1;
#X connect 7 0 1 0;
#X connect 8 0 10 0;
#X connect 9 0 8 0;
#X connect 12 0 11 0;
#X connect 13 0 15 0;
#X connect 15 0 14 0;
#X connect 16 0 17 0;
#X connect 18 0 3 0;
#X connect 18 0 12 0;
#X connect 18 1 4 0;
#X connect 18 1 12 0;
#X connect 18 2 5 0;
#X connect 18 2 12 0;
#X connect 18 3 6 0;
#X connect 18 3 12 0;
#X connect 18 4 21 0;
#X connect 18 5 19 0;
#X connect 19 0 16 0;
#X connect 20 0 9 0;
#X connect 20 1 16 0;
#X connect 20 2 13 0;
#X connect 20 3 7 0;
#X connect 21 0 8 1;
#X restore 179 87 pd init;
#X obj 144 124 route freq q amp ramp rampall, f 32;
#X obj 316 77 declare -path else;
#N canvas 266 157 434 340 route 0;
#X obj 172 102 route mc;
#X obj 176 166 == 0;
#X obj 176 208 s \$0-sum;
#X msg 176 187 sum \$1;
#X obj 244 130 r \$0-mc;
#X obj 169 60 inlet;
#X connect 0 0 1 0;
#X connect 1 0 3 0;
#X connect 3 0 2 0;
#X connect 4 0 1 0;
#X connect 5 0 0 0;
#X restore 365 128 pd route mc;
#X obj 91 163 t l l;
#X obj 161 159 t l l;
#X obj 215 156 t l l;
#X obj 265 155 t l l;
#N canvas 424 155 366 438 resize 0;
#X obj 139 362 outlet;
#X obj 112 61 inlet;
#X obj 131 161 r \$0-n;
#X msg 112 218 resize \$1;
#X obj 112 97 list length;
#X obj 112 124 max 1;
#X obj 112 195 change;
#X msg 190 320 all ramp \$1;
#X obj 190 295 f 10;
#X obj 112 249 t b a;
#X obj 190 61 inlet;
#X connect 1 0 4 0;
#X connect 2 0 6 0;
#X connect 3 0 9 0;
#X connect 4 0 5 0;
#X connect 5 0 6 0;
#X connect 6 0 3 0;
#X connect 7 0 0 0;
#X connect 8 0 7 0;
#X connect 9 0 8 0;
#X connect 9 1 0 0;
#X connect 10 0 8 0;
#X restore 439 242 pd resize and ramp;
#X connect 1 0 11 0;
#X connect 2 0 6 0;
#X connect 3 0 7 0;
#X connect 4 0 8 0;
#X connect 5 0 9 0;
#X connect 6 0 0 0;
#X connect 7 0 0 0;
#X connect 8 0 0 0;
#X connect 9 0 0 0;
#X connect 10 0 11 0;
#X connect 11 0 14 0;
#X connect 11 1 15 0;
#X connect 11 2 16 0;
#X connect 11 3 17 0;
#X connect 11 4 18 1;
#X connect 11 5 13 0;
#X connect 14 0 2 0;
#X connect 14 1 18 0;
#X connect 15 0 3 0;
#X connect 15 1 18 0;
#X connect 16 0 4 0;
#X connect 16 1 18 0;
#X connect 17 0 5 0;
#X connect 17 1 18 0;
#X connect 18 0 0 0;
#X restore 154 82 pd route/init;
#X obj 97 262 outlet~;
#X obj 97 139 clone -x -do bpclone 1;
#N canvas 360 151 395 378 sum 0;
#X obj 223 170 r \$0-n;
#X obj 212 220 expr 1/$f1;
#X obj 118 200 *~ 0;
#X obj 118 138 sum~;
#X obj 193 88 r \$0-sum;
#X obj 193 137 sel 0 1;
#X obj 212 196 f;
#X msg 176 172 1;
#X obj 118 48 inlet~;
#X obj 118 282 outlet~;
#X obj 193 111 route sum;
#X connect 0 0 6 0;
#X connect 1 0 2 1;
#X connect 2 0 9 0;
#X connect 3 0 2 0;
#X connect 4 0 3 0;
#X connect 4 0 10 0;
#X connect 5 0 7 0;
#X connect 5 1 6 0;
#X connect 6 0 1 0;
#X connect 7 0 2 1;
#X connect 8 0 3 0;
#X connect 10 0 5 0;
#X restore 97 205 pd sum;
#X text 321 137 Part of ELSE \; https://github.com/porres/pd-else;
#X text 323 118 Alexandre Torres Porres (2017);
#X connect 0 0 3 0;
#X connect 0 1 1 0;
#X connect 1 0 3 0;
#X connect 3 0 4 0;
#X connect 4 0 2 0;
